<svg width="251" height="75" viewBox="0 0 251 75" fill="none" xmlns="http://www.w3.org/2000/svg">
<path d="M27.98 63.06C26.66 63.06 25.42 62.84 24.26 62.4C23.14 62 22.1 61.32 21.14 60.36C20.98 60.2 20.8 60 20.6 59.76C20.44 59.56 20.36 59.34 20.36 59.1C20.36 58.78 20.48 58.6 20.72 58.56C20.96 58.56 21.1 58.54 21.14 58.5C21.38 58.3 21.5 58.06 21.5 57.78C21.5 57.54 21.52 57.28 21.56 57C21.64 56.48 21.9 55.9 22.34 55.26C22.82 54.62 23.36 54.3 23.96 54.3C23.96 54.3 23.98 54.32 24.02 54.36C24.06 54.36 24.08 54.38 24.08 54.42C24.08 54.58 23.94 54.8 23.66 55.08C23.38 55.36 23.1 55.68 22.82 56.04C22.54 56.4 22.4 56.8 22.4 57.24C22.4 57.92 22.68 58.5 23.24 58.98C23.8 59.5 24.48 59.92 25.28 60.24C26.12 60.56 26.94 60.8 27.74 60.96C28.58 61.12 29.26 61.2 29.78 61.2C32.14 61.2 34.3 60.44 36.26 58.92C38.26 57.44 40.1 55.46 41.78 52.98C43.46 50.46 44.98 47.68 46.34 44.64C47.74 41.6 49 38.54 50.12 35.46C51.24 32.38 52.24 29.5 53.12 26.82C54 24.14 54.76 21.92 55.4 20.16C53.36 20.92 51.24 21.92 49.04 23.16C46.88 24.36 44.88 25.78 43.04 27.42C41.24 29.02 39.84 30.84 38.84 32.88C38.48 33.48 38.3 34.16 38.3 34.92C38.3 35.68 38.54 36.34 39.02 36.9C39.5 37.46 40.14 37.74 40.94 37.74C41.54 37.74 42.04 37.58 42.44 37.26C42.88 36.9 43.2 36.72 43.4 36.72C43.48 36.72 43.52 36.76 43.52 36.84C43.52 37.24 43.22 37.62 42.62 37.98C42.06 38.34 41.64 38.58 41.36 38.7C41.08 38.78 40.84 38.86 40.64 38.94C40.44 38.98 40.18 39 39.86 39H39.44C36.8 39 35.48 37.72 35.48 35.16C35.48 33.72 35.94 32.36 36.86 31.08C37.78 29.8 38.96 28.6 40.4 27.48C41.84 26.36 43.4 25.34 45.08 24.42C46.76 23.46 48.38 22.6 49.94 21.84C51.5 21.04 52.82 20.36 53.9 19.8L56.06 18.48C56.38 17.72 56.88 16.98 57.56 16.26C58.24 15.5 59.04 15.12 59.96 15.12C60.4 15.12 60.8 15.26 61.16 15.54C61.56 15.78 61.78 16.14 61.82 16.62C61.02 16.98 60.22 17.92 59.42 19.44C58.66 20.96 57.84 22.86 56.96 25.14C56.08 27.42 55.12 29.92 54.08 32.64C53.08 35.36 51.96 38.14 50.72 40.98C49.48 43.82 48.1 46.56 46.58 49.2C45.1 51.8 43.44 54.16 41.6 56.28C39.76 58.36 37.7 60 35.42 61.2C33.18 62.44 30.7 63.06 27.98 63.06ZM56.5845 57.78C56.5445 57.78 56.5245 57.76 56.5245 57.72C56.5245 57.56 56.6045 57.4 56.7645 57.24C56.8845 57.08 56.9645 56.96 57.0045 56.88C57.2845 56.44 57.6245 55.7 58.0245 54.66C58.3845 53.58 58.7445 52.38 59.1045 51.06C59.5045 49.7 59.8645 48.34 60.1845 46.98C60.5445 45.58 60.8645 44.3 61.1445 43.14C61.4245 41.98 61.6245 41.1 61.7445 40.5C61.8245 40.18 61.9045 39.76 61.9845 39.24C62.0645 38.72 62.1845 38.2 62.3445 37.68C62.5045 37.16 62.6845 36.82 62.8845 36.66C63.2845 36.34 63.8245 36.06 64.5045 35.82C65.2245 35.58 65.9645 35.4 66.7245 35.28C67.4845 35.12 68.1045 35.04 68.5845 35.04C68.6645 35.04 68.7645 35.08 68.8845 35.16C69.0045 35.24 69.0845 35.32 69.1245 35.4V35.58C69.1245 35.7 69.0845 35.76 69.0045 35.76C68.9245 35.72 68.8445 35.7 68.7645 35.7C67.8845 35.7 67.1045 36.2 66.4245 37.2C65.7445 38.16 65.1645 39.36 64.6845 40.8C64.2045 42.2 63.8045 43.56 63.4845 44.88C63.1645 46.2 62.9245 47.2 62.7645 47.88C64.0445 45.68 65.5045 43.58 67.1445 41.58C68.8245 39.54 70.7845 37.9 73.0245 36.66C73.3045 36.5 73.6245 36.34 73.9845 36.18C74.3445 35.98 74.6645 35.88 74.9445 35.88C75.4645 35.88 75.7845 36.12 75.9045 36.6C76.0245 37.04 76.0845 37.46 76.0845 37.86C76.0845 38.38 75.9045 39.14 75.5445 40.14C75.1845 41.14 74.7645 42.14 74.2845 43.14C73.8445 44.1 73.5045 44.86 73.2645 45.42C73.0245 46.06 72.7445 46.88 72.4245 47.88C72.1045 48.88 71.8245 49.88 71.5845 50.88C71.3445 51.88 71.2245 52.72 71.2245 53.4C71.2245 53.68 71.2645 54 71.3445 54.36C71.4245 54.72 71.6445 54.9 72.0045 54.9C72.2045 54.9 72.3645 54.86 72.4845 54.78C72.6445 54.7 72.8045 54.62 72.9645 54.54C73.8845 54.02 74.7645 53.32 75.6045 52.44C76.4845 51.52 77.2845 50.54 78.0045 49.5C78.7245 48.42 79.3245 47.44 79.8045 46.56C79.8445 46.6 79.8645 46.68 79.8645 46.8C79.8645 47.04 79.7245 47.4 79.4445 47.88C79.1645 48.32 78.8445 48.8 78.4845 49.32C78.1245 49.84 77.7845 50.3 77.4645 50.7C77.1845 51.1 77.0445 51.34 77.0445 51.42C77.0045 51.7 76.9445 51.94 76.8645 52.14C76.7845 52.3 76.6845 52.52 76.5645 52.8C76.0845 53.28 75.3845 53.88 74.4645 54.6C73.5845 55.28 72.6645 55.9 71.7045 56.46C70.7845 56.98 69.9645 57.24 69.2445 57.24C68.6045 57.24 68.1645 57 67.9245 56.52C67.7245 56 67.6245 55.46 67.6245 54.9C67.6245 53.82 67.8445 52.54 68.2845 51.06C68.7245 49.54 69.2445 48.04 69.8445 46.56C70.4445 45.04 70.9445 43.76 71.3445 42.72C71.4645 42.4 71.6445 41.9 71.8845 41.22C72.1645 40.54 72.3045 40.06 72.3045 39.78C72.3045 39.58 72.2645 39.36 72.1845 39.12C72.1445 38.88 71.9645 38.76 71.6445 38.76C71.2445 38.76 70.7245 39.02 70.0845 39.54C69.4845 40.06 69.0245 40.48 68.7045 40.8C66.9845 42.72 65.5045 44.86 64.2645 47.22C63.0245 49.54 61.9845 51.94 61.1445 54.42C61.0245 54.74 60.9445 54.98 60.9045 55.14C60.9045 55.26 60.7445 55.42 60.4245 55.62C60.3045 55.7 59.9245 55.92 59.2845 56.28C58.6845 56.64 58.1045 56.98 57.5445 57.3C56.9445 57.62 56.6245 57.78 56.5845 57.78ZM59.8531 73.68C59.5731 73.68 59.1131 73.58 58.4731 73.38C57.7931 73.18 57.1731 72.92 56.6131 72.6C56.0131 72.28 55.7131 71.96 55.7131 71.64C55.7131 71.56 55.7931 71.52 55.9531 71.52C56.1131 71.6 56.2731 71.64 56.4331 71.64C56.5131 71.64 56.6331 71.6 56.7931 71.52C56.6331 71.28 56.5531 71.04 56.5531 70.8C56.5531 70.6 56.6131 70.48 56.7331 70.44L56.1931 69.3C56.1131 69.1 55.9131 68.8 55.5931 68.4C55.2731 68 55.1131 67.72 55.1131 67.56C55.1131 67.32 55.1331 67.14 55.1731 67.02C56.0131 68.18 56.7531 69.1 57.3931 69.78C57.9931 70.46 58.7131 70.94 59.5531 71.22C60.3931 71.54 61.5731 71.7 63.0931 71.7C64.5731 71.7 66.0131 71.08 67.4131 69.84C68.7731 68.64 70.0731 67.08 71.3131 65.16C72.5131 63.28 73.6131 61.26 74.6131 59.1C75.6131 56.94 76.4731 54.92 77.1931 53.04C77.9131 51.12 78.4731 49.6 78.8731 48.48C79.5131 46.64 80.1131 44.8 80.6731 42.96C81.2731 41.12 81.8731 39.28 82.4731 37.44L79.2331 37.62C79.1931 37.58 79.1731 37.5 79.1731 37.38C79.1731 37.14 79.3331 36.86 79.6531 36.54C79.9731 36.22 80.3331 35.96 80.7331 35.76C81.1331 35.52 81.4331 35.4 81.6331 35.4H83.1931C83.7131 33.92 84.3331 32.28 85.0531 30.48C85.8131 28.68 86.6731 26.88 87.6331 25.08C88.6331 23.28 89.7531 21.64 90.9931 20.16C92.2731 18.64 93.6931 17.42 95.2531 16.5C96.8131 15.58 98.5331 15.12 100.413 15.12C100.613 15.12 101.033 15.16 101.673 15.24C102.353 15.32 102.993 15.44 103.593 15.6C104.193 15.72 104.493 15.92 104.493 16.2C104.493 16.28 104.473 16.32 104.433 16.32C104.433 16.32 104.413 16.32 104.373 16.32C104.373 16.32 104.373 16.3 104.373 16.26L103.953 16.2C104.113 16.56 104.193 17.04 104.193 17.64C104.193 17.92 104.153 18.28 104.073 18.72C104.033 19.12 103.953 19.44 103.833 19.68C103.793 19.76 103.653 20.02 103.413 20.46C103.173 20.86 102.933 21.24 102.693 21.6C102.453 21.96 102.313 22.14 102.273 22.14C102.233 22.1 102.213 22.06 102.213 22.02C102.213 21.98 102.353 21.7 102.633 21.18C102.913 20.62 103.053 20.06 103.053 19.5C103.053 18.58 102.653 17.82 101.853 17.22C101.093 16.58 100.293 16.26 99.4531 16.26C98.3331 16.26 97.1931 16.76 96.0331 17.76C94.9131 18.76 93.8331 20.06 92.7931 21.66C91.7531 23.26 90.7931 24.94 89.9131 26.7C89.0731 28.46 88.3331 30.14 87.6931 31.74C87.0531 33.3 86.5731 34.54 86.2531 35.46H89.3131C89.8731 35.46 90.4131 35.46 90.9331 35.46C91.4531 35.42 91.9731 35.38 92.4931 35.34L92.6131 35.4L92.4331 35.58C92.3131 35.7 92.0131 35.88 91.5331 36.12C91.0531 36.36 90.5731 36.6 90.0931 36.84C89.6131 37.04 89.2731 37.16 89.0731 37.2C88.5531 37.28 87.9731 37.32 87.3331 37.32C86.7331 37.32 86.1531 37.32 85.5931 37.32C85.1931 38.64 84.7531 39.96 84.2731 41.28C83.8331 42.56 83.3931 43.84 82.9531 45.12C81.9931 47.84 81.0131 50.54 80.0131 53.22C79.0531 55.9 77.9131 58.46 76.5931 60.9C75.2331 63.38 73.5331 65.72 71.4931 67.92C70.0131 69.52 68.2731 70.88 66.2731 72C64.2331 73.12 62.0931 73.68 59.8531 73.68ZM88.6766 57.3C87.9166 57.3 87.3766 57.1 87.0566 56.7C86.7766 56.26 86.6366 55.5 86.6366 54.42C86.6366 52.86 86.8366 51.22 87.2366 49.5C87.6366 47.78 88.1766 46.12 88.8566 44.52C89.5366 42.88 90.2966 41.46 91.1366 40.26C91.7766 39.38 92.6366 38.56 93.7166 37.8C94.7966 37.04 95.9566 36.42 97.1966 35.94C98.4366 35.46 99.5966 35.22 100.677 35.22C101.037 35.22 101.477 35.28 101.997 35.4C102.517 35.48 102.917 35.64 103.197 35.88C103.397 36.04 103.517 36.26 103.557 36.54C103.637 36.82 103.677 37.08 103.677 37.32C103.677 38.36 103.497 39.58 103.137 40.98C102.817 42.34 102.377 43.74 101.817 45.18C101.257 46.62 100.657 47.98 100.017 49.26C99.3766 50.5 98.7366 51.54 98.0966 52.38C97.7366 52.86 97.1566 53.4 96.3566 54C95.5566 54.56 94.6766 55.1 93.7166 55.62C92.7966 56.1 91.8766 56.5 90.9566 56.82C90.0366 57.14 89.2766 57.3 88.6766 57.3ZM90.2966 55.62C92.1766 55.22 93.6966 54.32 94.8566 52.92C95.7766 51.84 96.6366 50.42 97.4366 48.66C98.2366 46.9 98.8766 45.08 99.3566 43.2C99.8766 41.32 100.137 39.68 100.137 38.28C100.137 38.16 100.117 37.96 100.077 37.68C100.077 37.4 100.017 37.24 99.8966 37.2C99.4166 36.96 98.8766 36.84 98.2766 36.84C97.8766 36.84 97.3566 36.98 96.7166 37.26C96.0766 37.5 95.5966 37.78 95.2766 38.1C95.0766 38.3 94.8766 38.58 94.6766 38.94C94.5166 39.26 94.3566 39.54 94.1966 39.78C93.4366 40.98 92.6966 42.38 91.9766 43.98C91.2966 45.58 90.7366 47.22 90.2966 48.9C89.8566 50.58 89.6366 52.16 89.6366 53.64C89.6366 54.12 89.6766 54.56 89.7566 54.96C89.8766 55.32 90.0566 55.54 90.2966 55.62ZM142.956 60.78C142.516 60.78 142.196 60.7 141.996 60.54C141.796 60.42 141.696 60.14 141.696 59.7C141.696 59.58 141.716 59.46 141.756 59.34C141.796 59.22 141.836 59.1 141.876 58.98C142.076 58.22 142.236 57.46 142.356 56.7C142.476 55.9 142.576 55.12 142.656 54.36C143.096 51.32 143.476 48.28 143.796 45.24C144.116 42.2 144.276 39.14 144.276 36.06C144.276 34.94 144.216 33.64 144.096 32.16C144.016 30.68 143.796 29.24 143.436 27.84C143.116 26.4 142.596 25.22 141.876 24.3C141.476 23.78 140.976 23.3 140.376 22.86C139.776 22.42 139.476 21.84 139.476 21.12C139.476 20.56 139.676 20.06 140.076 19.62C140.476 19.18 140.956 18.96 141.516 18.96C142.356 18.96 143.056 19.36 143.616 20.16C144.176 20.96 144.596 21.68 144.876 22.32C145.916 24.32 146.636 26.44 147.036 28.68C147.476 30.88 147.696 33.1 147.696 35.34C147.696 37.34 147.616 39.34 147.456 41.34C147.296 43.34 147.116 45.34 146.916 47.34C146.836 48.46 146.736 49.6 146.616 50.76C146.536 51.92 146.356 53.08 146.076 54.24C147.516 52.48 148.996 50.44 150.516 48.12C152.076 45.8 153.556 43.42 154.956 40.98C156.356 38.54 157.496 36.3 158.376 34.26C158.696 33.58 158.976 32.88 159.216 32.16C159.496 31.44 159.776 30.74 160.056 30.06C160.016 29.74 159.956 29.4 159.876 29.04C159.836 28.68 159.816 28.34 159.816 28.02C159.816 27.5 160.136 26.98 160.776 26.46C161.456 25.9 162.036 25.62 162.516 25.62C162.876 25.62 163.136 25.8 163.296 26.16C163.376 26.32 163.416 26.78 163.416 27.54C163.456 28.3 163.476 28.8 163.476 29.04C163.476 29.56 163.436 30.16 163.356 30.84C163.316 31.52 163.156 32.1 162.876 32.58C162.836 33.58 162.816 34.6 162.816 35.64C162.816 36.64 162.816 37.66 162.816 38.7C162.816 39.9 162.836 41.4 162.876 43.2C162.916 45 163.016 46.78 163.176 48.54C163.376 50.26 163.676 51.68 164.076 52.8C165.116 51.2 166.156 49.6 167.196 48C168.236 46.4 169.276 44.8 170.316 43.2C171.716 41.08 173.316 38.7 175.116 36.06C176.956 33.38 178.916 30.68 180.996 27.96C183.076 25.24 185.176 22.74 187.296 20.46C189.456 18.14 191.556 16.26 193.596 14.82C194.996 13.82 196.616 12.94 198.456 12.18C200.296 11.38 202.076 10.98 203.796 10.98C204.836 10.98 205.916 11.18 207.036 11.58C208.156 11.98 209.096 12.58 209.856 13.38C210.656 14.14 211.056 15.12 211.056 16.32C211.056 17.16 210.896 18.14 210.576 19.26C210.256 20.34 209.816 21.22 209.256 21.9C209.176 22.06 209.056 22.14 208.896 22.14C208.896 22.14 208.876 22.14 208.836 22.14C208.836 22.1 208.836 22.06 208.836 22.02C208.836 21.7 208.936 21.28 209.136 20.76C209.336 20.24 209.436 19.72 209.436 19.2C209.436 18 209.036 16.98 208.236 16.14C207.436 15.3 206.476 14.66 205.356 14.22C204.236 13.78 203.156 13.56 202.116 13.56C200.636 13.56 199.156 13.86 197.676 14.46C196.236 15.02 194.896 15.7 193.656 16.5C192.456 17.26 191.196 18.3 189.876 19.62C188.596 20.94 187.316 22.38 186.036 23.94C184.796 25.5 183.616 27.06 182.496 28.62C181.376 30.14 180.416 31.5 179.616 32.7C177.816 35.38 176.036 38.08 174.276 40.8C172.516 43.48 170.776 46.18 169.056 48.9C168.496 49.82 167.936 50.74 167.376 51.66C166.816 52.58 166.236 53.5 165.636 54.42C165.356 54.82 165.076 55.24 164.796 55.68C164.516 56.08 164.276 56.52 164.076 57C164.036 57.16 163.976 57.4 163.896 57.72C163.816 58.04 163.736 58.26 163.656 58.38C163.496 58.58 163.256 58.72 162.936 58.8C162.616 58.88 162.336 58.92 162.096 58.92C161.696 58.92 161.376 58.84 161.136 58.68C160.896 58.56 160.776 58.28 160.776 57.84C160.776 57.8 160.776 57.76 160.776 57.72C160.816 57.72 160.836 57.7 160.836 57.66C160.916 57.42 160.956 57.18 160.956 56.94C160.956 56.7 160.956 56.48 160.956 56.28C160.956 52.6 160.816 48.92 160.536 45.24C160.296 41.52 160.176 37.84 160.176 34.2C158.856 37.48 157.196 40.6 155.196 43.56C153.196 46.52 151.256 49.48 149.376 52.44C148.976 53.12 148.536 53.8 148.056 54.48C147.576 55.12 147.096 55.78 146.616 56.46C146.416 56.74 146.116 57.12 145.716 57.6C145.316 58.12 145.056 58.54 144.936 58.86C144.896 59.02 144.856 59.26 144.816 59.58C144.776 59.9 144.696 60.12 144.576 60.24C144.416 60.44 144.176 60.58 143.856 60.66C143.536 60.74 143.236 60.78 142.956 60.78ZM127.896 34.62C126.696 34.62 125.336 34.42 123.816 34.02C122.296 33.62 120.816 33.04 119.376 32.28C117.976 31.52 116.816 30.58 115.896 29.46C114.976 28.34 114.516 27.06 114.516 25.62C114.516 24.82 114.596 24.22 114.756 23.82C114.956 23.42 115.196 23.06 115.476 22.74C115.756 22.38 116.076 21.92 116.436 21.36C117.036 20.4 117.636 19.52 118.236 18.72C118.876 17.92 119.696 17.24 120.696 16.68C122.296 15.8 124.016 15.22 125.856 14.94C127.736 14.62 129.576 14.46 131.376 14.46C133.256 14.46 135.156 14.58 137.076 14.82C139.036 15.06 140.936 15.4 142.776 15.84C145.496 16.48 148.136 17.3 150.696 18.3C153.296 19.26 155.936 20.08 158.616 20.76C159.256 20.92 159.896 21.08 160.536 21.24C161.176 21.36 161.816 21.42 162.456 21.42C162.576 21.42 162.676 21.42 162.756 21.42C162.876 21.38 162.976 21.36 163.056 21.36C163.136 21.36 163.256 21.38 163.416 21.42C163.576 21.46 163.656 21.52 163.656 21.6C163.656 21.76 163.476 21.9 163.116 22.02C162.756 22.14 162.356 22.24 161.916 22.32C161.516 22.36 161.256 22.38 161.136 22.38C161.016 22.38 160.896 22.38 160.776 22.38C160.656 22.34 160.536 22.32 160.416 22.32C159.896 22.28 159.396 22.24 158.916 22.2C158.436 22.16 157.936 22.1 157.416 22.02C155.616 21.7 153.856 21.24 152.136 20.64C150.416 20 148.696 19.38 146.976 18.78C145.256 18.14 143.496 17.64 141.696 17.28C140.576 17.08 139.436 16.94 138.276 16.86C137.156 16.78 136.016 16.74 134.856 16.74C133.976 16.74 132.816 16.82 131.376 16.98C129.976 17.1 128.476 17.32 126.876 17.64C125.316 17.96 123.836 18.42 122.436 19.02C121.076 19.62 119.956 20.36 119.076 21.24C118.196 22.12 117.756 23.18 117.756 24.42C117.756 25.7 118.116 26.88 118.836 27.96C119.596 29 120.556 29.9 121.716 30.66C122.876 31.42 124.116 32.02 125.436 32.46C126.756 32.86 127.976 33.06 129.096 33.06C129.416 33.06 129.716 33.02 129.996 32.94C130.316 32.86 130.616 32.82 130.896 32.82H131.016C131.136 32.82 131.196 32.88 131.196 33C131.196 33.2 130.996 33.34 130.596 33.42C130.196 33.46 129.796 33.5 129.396 33.54C128.996 33.58 128.796 33.72 128.796 33.96C128.796 34 128.816 34.06 128.856 34.14C128.896 34.18 128.916 34.24 128.916 34.32C128.916 34.48 128.756 34.58 128.436 34.62C128.156 34.62 127.976 34.62 127.896 34.62ZM181.279 57.24C178.959 57.24 177.799 56.06 177.799 53.7C177.799 51.94 178.159 50.06 178.879 48.06C179.599 46.02 180.539 44.08 181.699 42.24C182.859 40.36 184.079 38.84 185.359 37.68C186.879 36.36 188.659 35.7 190.699 35.7C191.179 35.7 191.759 35.76 192.439 35.88C193.159 36 193.779 36.24 194.299 36.6C194.819 36.92 195.079 37.4 195.079 38.04C195.079 38.96 194.739 40.02 194.059 41.22C193.379 42.38 192.759 43.32 192.199 44.04C192.399 44.08 192.639 44.14 192.919 44.22C193.239 44.3 193.399 44.46 193.399 44.7C193.399 44.82 193.299 44.88 193.099 44.88C192.739 44.88 192.379 44.84 192.019 44.76C191.659 44.68 191.299 44.64 190.939 44.64C189.579 44.64 188.179 44.84 186.739 45.24C185.339 45.64 183.999 46.06 182.719 46.5C182.319 47.46 181.959 48.52 181.639 49.68C181.359 50.84 181.219 51.94 181.219 52.98C181.219 53.74 181.359 54.42 181.639 55.02C181.959 55.62 182.559 55.92 183.439 55.92C184.519 55.92 185.619 55.62 186.739 55.02C187.899 54.38 188.999 53.58 190.039 52.62C191.119 51.62 192.079 50.58 192.919 49.5C193.759 48.42 194.419 47.44 194.899 46.56C194.939 46.6 194.959 46.68 194.959 46.8C194.959 47.16 194.739 47.66 194.299 48.3C193.859 48.9 193.399 49.5 192.919 50.1C192.479 50.7 192.219 51.14 192.139 51.42C192.099 51.7 192.019 51.94 191.899 52.14C191.819 52.34 191.719 52.56 191.599 52.8C190.919 53.48 189.939 54.18 188.659 54.9C187.419 55.58 186.119 56.14 184.759 56.58C183.439 57.02 182.279 57.24 181.279 57.24ZM183.559 44.58C184.599 44.38 185.619 44.22 186.619 44.1C187.659 43.98 188.699 43.92 189.739 43.92C190.059 43.92 190.379 43.92 190.699 43.92C191.019 43.92 191.339 43.94 191.659 43.98C191.979 43.3 192.239 42.56 192.439 41.76C192.679 40.96 192.799 40.18 192.799 39.42C192.799 38.82 192.679 38.22 192.439 37.62C192.199 36.98 191.679 36.66 190.879 36.66C190.119 36.66 189.339 36.98 188.539 37.62C187.779 38.26 187.159 38.84 186.679 39.36C186.039 40.12 185.459 40.96 184.939 41.88C184.459 42.76 183.999 43.66 183.559 44.58ZM198.807 57.72C198.207 57.72 197.587 57.68 196.947 57.6C196.347 57.52 195.827 57.32 195.387 57C194.947 56.68 194.727 56.14 194.727 55.38C194.727 54.98 194.767 54.6 194.847 54.24C194.927 53.84 195.007 53.46 195.087 53.1C195.567 51.22 196.247 48.7 197.127 45.54C198.047 42.34 199.147 39.04 200.427 35.64C200.947 34.24 201.567 32.66 202.287 30.9C203.047 29.14 203.907 27.36 204.867 25.56C205.827 23.76 206.927 22.1 208.167 20.58C209.407 19.06 210.767 17.84 212.247 16.92C213.767 16 215.447 15.54 217.287 15.54C219.287 15.54 220.607 15.9 221.247 16.62C221.927 17.34 222.267 18.08 222.267 18.84C222.267 19.16 222.147 19.36 221.907 19.44C221.707 19.52 221.607 19.42 221.607 19.14C221.607 18.3 221.267 17.62 220.587 17.1C219.947 16.54 219.147 16.26 218.187 16.26C217.347 16.26 216.427 16.58 215.427 17.22C214.467 17.82 213.567 18.54 212.727 19.38C211.887 20.18 211.227 20.9 210.747 21.54C209.427 23.34 208.167 25.4 206.967 27.72C205.807 30 204.747 32.32 203.787 34.68C202.827 37.04 201.987 39.22 201.267 41.22C200.587 43.22 200.067 44.82 199.707 46.02V46.26C199.707 46.34 199.727 46.4 199.767 46.44L199.947 46.26C200.427 45.62 201.107 44.74 201.987 43.62C202.907 42.5 203.887 41.36 204.927 40.2C206.007 39.04 207.087 38.06 208.167 37.26C209.247 36.46 210.207 36.06 211.047 36.06C211.687 36.06 212.087 36.32 212.247 36.84C212.447 37.32 212.547 37.82 212.547 38.34C212.547 40.18 212.187 42.2 211.467 44.4C210.747 46.6 209.807 48.7 208.647 50.7C207.487 52.66 206.227 54.26 204.867 55.5C203.987 56.34 203.067 56.92 202.107 57.24C201.147 57.56 200.047 57.72 198.807 57.72ZM199.347 56.52C200.107 56.52 200.887 56.2 201.687 55.56C202.487 54.92 203.107 54.34 203.547 53.82C204.107 53.18 204.707 52.28 205.347 51.12C205.987 49.92 206.587 48.62 207.147 47.22C207.707 45.78 208.167 44.42 208.527 43.14C208.927 41.86 209.127 40.82 209.127 40.02C209.127 39.74 209.087 39.44 209.007 39.12C208.927 38.8 208.727 38.64 208.407 38.64C208.007 38.64 207.467 38.92 206.787 39.48C206.147 40 205.467 40.64 204.747 41.4C204.067 42.16 203.447 42.9 202.887 43.62C202.327 44.34 201.927 44.88 201.687 45.24C201.207 45.96 200.647 46.9 200.007 48.06C199.367 49.22 198.807 50.42 198.327 51.66C197.847 52.86 197.607 53.88 197.607 54.72C197.607 55.92 198.187 56.52 199.347 56.52ZM210.863 57.78C210.783 57.78 210.743 57.76 210.743 57.72C210.743 57.56 210.823 57.4 210.983 57.24C211.103 57.12 211.203 57 211.283 56.88C211.643 56.28 212.043 55.26 212.483 53.82C212.963 52.34 213.423 50.72 213.863 48.96C214.343 47.2 214.763 45.56 215.123 44.04C215.523 42.48 215.803 41.3 215.963 40.5C216.043 40.18 216.123 39.76 216.203 39.24C216.323 38.72 216.463 38.2 216.623 37.68C216.783 37.16 216.963 36.82 217.163 36.66C217.523 36.34 218.063 36.06 218.783 35.82C219.503 35.58 220.223 35.4 220.943 35.28C221.703 35.12 222.323 35.04 222.803 35.04C222.883 35.04 222.983 35.08 223.103 35.16C223.223 35.24 223.303 35.32 223.343 35.4L223.403 35.58C223.363 35.7 223.303 35.76 223.223 35.76C223.143 35.72 223.063 35.7 222.983 35.7C222.223 35.7 221.523 36.14 220.883 37.02C220.243 37.86 219.683 38.9 219.203 40.14C218.723 41.38 218.303 42.58 217.943 43.74C217.623 44.86 217.403 45.7 217.283 46.26C217.683 45.34 218.203 44.3 218.843 43.14C219.523 41.94 220.303 40.8 221.183 39.72C222.063 38.6 223.023 37.68 224.063 36.96C225.103 36.2 226.203 35.82 227.363 35.82C227.523 35.82 227.783 35.86 228.143 35.94C228.543 35.98 228.903 36.08 229.223 36.24C229.583 36.36 229.763 36.52 229.763 36.72L229.703 36.78H229.643L229.283 36.66C229.403 36.94 229.483 37.22 229.523 37.5C229.563 37.78 229.583 38.06 229.583 38.34C229.583 38.58 229.503 39.1 229.343 39.9C229.223 40.7 229.043 41.46 228.803 42.18C228.603 42.86 228.383 43.2 228.143 43.2C227.983 43.2 227.903 43.14 227.903 43.02C227.903 42.82 227.963 42.5 228.083 42.06C228.243 41.58 228.323 41.14 228.323 40.74C228.323 40.02 228.143 39.44 227.783 39C227.423 38.56 226.883 38.34 226.163 38.34C224.963 38.34 223.803 38.86 222.683 39.9C221.563 40.9 220.543 42.16 219.623 43.68C218.703 45.16 217.923 46.66 217.283 48.18C216.643 49.7 216.203 50.94 215.963 51.9C215.803 52.42 215.663 53.1 215.543 53.94C215.423 54.74 215.123 55.3 214.643 55.62C214.523 55.66 214.143 55.86 213.503 56.22C212.903 56.58 212.323 56.92 211.763 57.24C211.163 57.6 210.863 57.78 210.863 57.78Z" fill="black"/>
<rect width="101.619" height="3" rx="1.5" fill="#F97316"/>
<rect x="149.381" y="72" width="101.619" height="3" rx="1.5" fill="#F97316"/>
</svg>
